<mxfile host="app.diagrams.net" agent="Mozilla/5.0 (Windows NT 10.0; Win64; x64; rv:137.0) Gecko/20100101 Firefox/137.0" version="26.2.14">
  <diagram name="Page-1" id="87d72UowPhc3rqLoaBaN">
    <mxGraphModel dx="1453" dy="913" grid="1" gridSize="10" guides="1" tooltips="1" connect="1" arrows="1" fold="1" page="1" pageScale="1" pageWidth="850" pageHeight="1100" math="0" shadow="0">
      <root>
        <mxCell id="0" />
        <mxCell id="1" parent="0" />
        <mxCell id="2pSQMQYCP9wbDP_SpKnS-43" value="" style="rounded=0;whiteSpace=wrap;html=1;fillColor=none;dashed=1;strokeWidth=2;" parent="1" vertex="1">
          <mxGeometry x="340" y="300" width="840" height="300" as="geometry" />
        </mxCell>
        <mxCell id="2pSQMQYCP9wbDP_SpKnS-4" value="&lt;font style=&quot;color: rgb(255, 255, 255);&quot;&gt;&lt;b&gt;Keycloak&lt;/b&gt;&lt;br&gt;&lt;/font&gt;&lt;div&gt;&lt;font style=&quot;color: rgb(255, 255, 255);&quot;&gt;&lt;font style=&quot;font-size: 10px;&quot;&gt;(SSO, Manajemen User&lt;/font&gt;&lt;span style=&quot;font-size: 10px; background-color: transparent;&quot;&gt;)&lt;/span&gt;&lt;/font&gt;&lt;/div&gt;" style="rounded=1;whiteSpace=wrap;html=1;fillColor=#0050ef;fontColor=#ffffff;strokeColor=#001DBC;" parent="1" vertex="1">
          <mxGeometry x="40" y="120.00999999999999" width="200" height="80" as="geometry" />
        </mxCell>
        <mxCell id="2pSQMQYCP9wbDP_SpKnS-5" value="&lt;font style=&quot;color: rgb(255, 255, 255);&quot;&gt;&lt;b&gt;Grafana&lt;/b&gt;&lt;br&gt;&lt;/font&gt;&lt;div&gt;&lt;font style=&quot;color: rgb(255, 255, 255);&quot;&gt;&lt;font style=&quot;font-size: 10px;&quot;&gt;(Dashboard Data, Overview, Pencatatan Log, Menampilkan Data&lt;/font&gt;&lt;span style=&quot;font-size: 10px; background-color: transparent;&quot;&gt;)&lt;/span&gt;&lt;/font&gt;&lt;/div&gt;" style="rounded=1;whiteSpace=wrap;html=1;fillColor=#d80073;strokeColor=#A50040;fontColor=#ffffff;" parent="1" vertex="1">
          <mxGeometry x="760" y="510" width="200" height="80" as="geometry" />
        </mxCell>
        <mxCell id="2pSQMQYCP9wbDP_SpKnS-15" style="edgeStyle=orthogonalEdgeStyle;rounded=0;orthogonalLoop=1;jettySize=auto;html=1;entryX=1;entryY=0.5;entryDx=0;entryDy=0;endArrow=none;startFill=0;strokeWidth=2;" parent="1" source="2pSQMQYCP9wbDP_SpKnS-7" target="2pSQMQYCP9wbDP_SpKnS-13" edge="1">
          <mxGeometry relative="1" as="geometry" />
        </mxCell>
        <mxCell id="2pSQMQYCP9wbDP_SpKnS-16" style="edgeStyle=orthogonalEdgeStyle;rounded=0;orthogonalLoop=1;jettySize=auto;html=1;entryX=1;entryY=0.5;entryDx=0;entryDy=0;endArrow=none;startFill=0;strokeWidth=2;" parent="1" source="2pSQMQYCP9wbDP_SpKnS-38" target="2pSQMQYCP9wbDP_SpKnS-14" edge="1">
          <mxGeometry relative="1" as="geometry">
            <Array as="points">
              <mxPoint x="295" y="600" />
            </Array>
          </mxGeometry>
        </mxCell>
        <mxCell id="2pSQMQYCP9wbDP_SpKnS-21" style="edgeStyle=orthogonalEdgeStyle;rounded=0;orthogonalLoop=1;jettySize=auto;html=1;entryX=0;entryY=0.5;entryDx=0;entryDy=0;endArrow=none;startFill=0;strokeWidth=2;exitX=1;exitY=0.5;exitDx=0;exitDy=0;" parent="1" source="2pSQMQYCP9wbDP_SpKnS-36" target="2pSQMQYCP9wbDP_SpKnS-5" edge="1">
          <mxGeometry relative="1" as="geometry">
            <Array as="points">
              <mxPoint x="680" y="495" />
              <mxPoint x="680" y="550" />
            </Array>
          </mxGeometry>
        </mxCell>
        <mxCell id="2pSQMQYCP9wbDP_SpKnS-24" style="edgeStyle=orthogonalEdgeStyle;rounded=0;orthogonalLoop=1;jettySize=auto;html=1;entryX=0;entryY=0.5;entryDx=0;entryDy=0;strokeWidth=2;endArrow=none;startFill=0;" parent="1" source="2pSQMQYCP9wbDP_SpKnS-7" target="2pSQMQYCP9wbDP_SpKnS-23" edge="1">
          <mxGeometry relative="1" as="geometry">
            <Array as="points">
              <mxPoint x="680" y="495" />
              <mxPoint x="680" y="450" />
            </Array>
          </mxGeometry>
        </mxCell>
        <mxCell id="2pSQMQYCP9wbDP_SpKnS-26" style="edgeStyle=orthogonalEdgeStyle;rounded=0;orthogonalLoop=1;jettySize=auto;html=1;entryX=0;entryY=0.5;entryDx=0;entryDy=0;endArrow=none;startFill=0;strokeWidth=2;" parent="1" source="2pSQMQYCP9wbDP_SpKnS-36" target="2pSQMQYCP9wbDP_SpKnS-25" edge="1">
          <mxGeometry relative="1" as="geometry">
            <Array as="points">
              <mxPoint x="680" y="495" />
              <mxPoint x="680" y="350" />
            </Array>
          </mxGeometry>
        </mxCell>
        <mxCell id="2pSQMQYCP9wbDP_SpKnS-7" value="&lt;b&gt;Ekosistem Webhook (Whookom)&lt;/b&gt;&lt;div&gt;&lt;font style=&quot;font-size: 10px;&quot;&gt;(Manajemen Webhook, API Whatsapp, Aplikasi Trigger, Pencatatan Log, Notifikasi)&lt;/font&gt;&lt;/div&gt;&lt;div&gt;&lt;font style=&quot;font-size: 10px;&quot;&gt;&lt;br&gt;&lt;/font&gt;&lt;/div&gt;&lt;div&gt;&lt;font style=&quot;font-size: 10px;&quot;&gt;Integrasi + Mandala Chain, Whatsapp, e-Mail, Telegram&lt;/font&gt;&lt;/div&gt;&lt;div&gt;&lt;br&gt;&lt;/div&gt;&lt;div&gt;&lt;b&gt;&lt;font style=&quot;font-size: 11px;&quot;&gt;Tools yang terlibat:&lt;/font&gt;&lt;/b&gt;&lt;/div&gt;&lt;div&gt;&lt;font style=&quot;font-size: 10px;&quot;&gt;Teable, Grafana, MinIO, Kong, WA API&lt;/font&gt;&lt;/div&gt;" style="rounded=0;whiteSpace=wrap;html=1;fillColor=#4D4D4D;strokeColor=#314354;fontColor=#ffffff;strokeWidth=4;" parent="1" vertex="1">
          <mxGeometry x="350" y="404.06" width="240" height="181.88" as="geometry" />
        </mxCell>
        <mxCell id="2pSQMQYCP9wbDP_SpKnS-13" value="&lt;b&gt;Tools Lainnya&lt;/b&gt;&lt;br&gt;&lt;div&gt;&lt;font style=&quot;font-size: 10px;&quot;&gt;(Trello, Discord, Whatsapp&lt;/font&gt;&lt;span style=&quot;font-size: 10px; background-color: transparent; color: light-dark(rgb(0, 0, 0), rgb(255, 255, 255));&quot;&gt;)&lt;/span&gt;&lt;/div&gt;" style="rounded=1;whiteSpace=wrap;html=1;fillColor=#f5f5f5;fontColor=#333333;strokeColor=#666666;" parent="1" vertex="1">
          <mxGeometry x="40" y="455" width="200" height="80" as="geometry" />
        </mxCell>
        <mxCell id="2pSQMQYCP9wbDP_SpKnS-14" value="&lt;b&gt;Aplikasi Lainnya&lt;/b&gt;&lt;br&gt;&lt;div&gt;&lt;font style=&quot;font-size: 10px;&quot;&gt;(e-Surat, LAKON, Pro Denpasar&lt;/font&gt;&lt;span style=&quot;font-size: 10px; background-color: transparent; color: light-dark(rgb(0, 0, 0), rgb(255, 255, 255));&quot;&gt;)&lt;/span&gt;&lt;/div&gt;" style="rounded=1;whiteSpace=wrap;html=1;fillColor=#f5f5f5;fontColor=#333333;strokeColor=#666666;" parent="1" vertex="1">
          <mxGeometry x="40" y="560" width="200" height="80" as="geometry" />
        </mxCell>
        <mxCell id="2pSQMQYCP9wbDP_SpKnS-23" value="&lt;b&gt;Mandala Chain&lt;/b&gt;&lt;div&gt;&lt;font style=&quot;font-size: 10px;&quot;&gt;(Secure Data, Blockchain)&lt;/font&gt;&lt;/div&gt;" style="rounded=1;whiteSpace=wrap;html=1;fillColor=#008a00;fontColor=#ffffff;strokeColor=#005700;" parent="1" vertex="1">
          <mxGeometry x="760" y="410" width="200" height="80" as="geometry" />
        </mxCell>
        <mxCell id="2pSQMQYCP9wbDP_SpKnS-31" style="edgeStyle=orthogonalEdgeStyle;rounded=0;orthogonalLoop=1;jettySize=auto;html=1;endArrow=none;startFill=0;" parent="1" source="2pSQMQYCP9wbDP_SpKnS-25" target="2pSQMQYCP9wbDP_SpKnS-30" edge="1">
          <mxGeometry relative="1" as="geometry" />
        </mxCell>
        <mxCell id="2pSQMQYCP9wbDP_SpKnS-25" value="&lt;b&gt;Whatsapp API&lt;/b&gt;&lt;div&gt;&lt;font style=&quot;font-size: 10px;&quot;&gt;(Kirim dan menerima pesan)&lt;/font&gt;&lt;/div&gt;" style="rounded=1;whiteSpace=wrap;html=1;fillColor=#008a00;fontColor=#ffffff;strokeColor=#005700;" parent="1" vertex="1">
          <mxGeometry x="760" y="310" width="200" height="80" as="geometry" />
        </mxCell>
        <mxCell id="2pSQMQYCP9wbDP_SpKnS-30" value="&lt;span style=&quot;font-size: 10px;&quot;&gt;Fungsi Bot &amp;amp; AI&lt;/span&gt;" style="ellipse;whiteSpace=wrap;html=1;fillColor=#d80073;fontColor=#ffffff;strokeColor=#A50040;" parent="1" vertex="1">
          <mxGeometry x="1010" y="328.13" width="145" height="43.75" as="geometry" />
        </mxCell>
        <mxCell id="2pSQMQYCP9wbDP_SpKnS-37" value="" style="edgeStyle=orthogonalEdgeStyle;rounded=0;orthogonalLoop=1;jettySize=auto;html=1;entryX=0;entryY=0.5;entryDx=0;entryDy=0;endArrow=none;startFill=0;dashed=1;strokeWidth=2;" parent="1" source="2pSQMQYCP9wbDP_SpKnS-7" target="2pSQMQYCP9wbDP_SpKnS-36" edge="1">
          <mxGeometry relative="1" as="geometry">
            <mxPoint x="590" y="495" as="sourcePoint" />
            <mxPoint x="760" y="160" as="targetPoint" />
            <Array as="points">
              <mxPoint x="680" y="495" />
            </Array>
          </mxGeometry>
        </mxCell>
        <mxCell id="2pSQMQYCP9wbDP_SpKnS-36" value="API" style="ellipse;whiteSpace=wrap;html=1;strokeWidth=3;fontStyle=1" parent="1" vertex="1">
          <mxGeometry x="610" y="473.76" width="50" height="42.49" as="geometry" />
        </mxCell>
        <mxCell id="2pSQMQYCP9wbDP_SpKnS-39" value="" style="edgeStyle=orthogonalEdgeStyle;rounded=0;orthogonalLoop=1;jettySize=auto;html=1;entryX=1;entryY=0.5;entryDx=0;entryDy=0;endArrow=none;startFill=0;strokeWidth=2;" parent="1" source="2pSQMQYCP9wbDP_SpKnS-7" target="2pSQMQYCP9wbDP_SpKnS-38" edge="1">
          <mxGeometry relative="1" as="geometry">
            <mxPoint x="350" y="495" as="sourcePoint" />
            <mxPoint x="250" y="640" as="targetPoint" />
          </mxGeometry>
        </mxCell>
        <mxCell id="2pSQMQYCP9wbDP_SpKnS-38" value="API" style="ellipse;whiteSpace=wrap;html=1;strokeWidth=3;fontStyle=1" parent="1" vertex="1">
          <mxGeometry x="270" y="473.76" width="50" height="42.49" as="geometry" />
        </mxCell>
        <mxCell id="2pSQMQYCP9wbDP_SpKnS-46" value="&lt;b&gt;Server Dev Baru&lt;/b&gt;&lt;div&gt;(192.168.17.52)&lt;/div&gt;" style="shape=parallelogram;perimeter=parallelogramPerimeter;whiteSpace=wrap;html=1;fixedSize=1;" parent="1" vertex="1">
          <mxGeometry x="1150" y="551" width="160" height="50" as="geometry" />
        </mxCell>
        <mxCell id="2pSQMQYCP9wbDP_SpKnS-49" value="&lt;font style=&quot;color: rgb(255, 255, 255);&quot;&gt;&lt;b&gt;Fossorial + Pangoline&lt;/b&gt;&lt;br&gt;&lt;/font&gt;&lt;div&gt;&lt;font style=&quot;color: rgb(255, 255, 255);&quot;&gt;&lt;font style=&quot;font-size: 10px;&quot;&gt;(Load Balancer, Reverse Proxy, Domain &amp;amp; Site Management&lt;/font&gt;&lt;span style=&quot;font-size: 10px; background-color: transparent;&quot;&gt;)&lt;/span&gt;&lt;/font&gt;&lt;/div&gt;" style="rounded=1;whiteSpace=wrap;html=1;fillColor=#d80073;fontColor=#ffffff;strokeColor=#A50040;" parent="1" vertex="1">
          <mxGeometry x="260" y="120.00999999999999" width="200" height="80" as="geometry" />
        </mxCell>
      </root>
    </mxGraphModel>
  </diagram>
</mxfile>
